<?xml version="1.0" standalone="no"?>
<!DOCTYPE svg PUBLIC "-//W3C//DTD SVG 20010904//EN"
 "http://www.w3.org/TR/2001/REC-SVG-20010904/DTD/svg10.dtd">
<svg version="1.0" xmlns="http://www.w3.org/2000/svg"
 width="200.000000pt" height="200.000000pt" viewBox="0 0 200.000000 200.000000"
 preserveAspectRatio="xMidYMid meet">
<metadata>
Created by potrace 1.11, written by Peter Selinger 2001-2013
</metadata>
<g transform="translate(0.000000,200.000000) scale(0.100000,-0.100000)"
fill="#000000" stroke="none">
<path d="M845 1959 c-237 -34 -480 -179 -633 -377 -215 -278 -261 -680 -114
-1004 126 -275 379 -482 677 -553 163 -39 433 -22 560 35 11 5 46 21 78 35
167 71 346 237 442 408 38 70 89 200 99 257 21 114 26 164 25 237 -7 362 -199
680 -519 855 -177 97 -406 137 -615 107z"/>
</g>
</svg>
